<?xml version="1.0" encoding="UTF-8"?>
<svg width="496px" height="180px" viewBox="0 0 496 180" version="1.1" xmlns="http://www.w3.org/2000/svg" xmlns:xlink="http://www.w3.org/1999/xlink">
    <!-- Generator: Sketch 44.1 (41455) - http://www.bohemiancoding.com/sketch -->
    <title>aptos</title>
    <desc>Created with Sketch.</desc>
    <defs>
        <linearGradient x1="0%" y1="0%" x2="101.999998%" y2="100.999999%" id="linearGradient-1">
            <stop stop-color="#F2994A" offset="0%"></stop>
            <stop stop-color="#F2C94C" offset="100%"></stop>
        </linearGradient>
    </defs>
    <g id="Page-1" stroke="none" stroke-width="1" fill="none" fill-rule="evenodd" opacity="0.8">
        <path d="M77.904,67.968 C79.5360082,69.6000082 80.352,71.711987 80.352,74.304 L80.352,135.216 C80.352,137.712012 79.5360082,139.799992 77.904,141.48 C76.2719918,143.160008 74.2080125,144 71.712,144 C69.2159875,144 67.1760079,143.184008 65.592,141.552 C64.0079921,139.919992 63.1680005,137.856012 63.072,135.36 C60.671988,138.144014 57.4320204,140.51999 53.352,142.488 C49.2719796,144.45601 44.9760226,145.44 40.464,145.44 C33.8399669,145.44 27.8400269,143.736017 22.464,140.328 C17.0879731,136.919983 12.8400156,132.19203 9.72,126.144 C6.5999844,120.09597 5.04,113.232038 5.04,105.552 C5.04,97.8719616 6.57598464,90.9840305 9.648,84.888 C12.7200154,78.7919695 16.9199734,74.040017 22.248,70.632 C27.5760266,67.223983 33.4559678,65.52 39.888,65.52 C44.496023,65.52 48.8159798,66.3599916 52.848,68.04 C56.8800202,69.7200084 60.2879861,71.855987 63.072,74.448 L63.072,74.304 C63.072,71.8079875 63.8879918,69.7200084 65.52,68.04 C67.1520082,66.3599916 69.2159875,65.52 71.712,65.52 C74.2080125,65.52 76.2719918,66.3359918 77.904,67.968 Z M57.888,122.76 C61.8240197,118.199977 63.792,112.464035 63.792,105.552 C63.792,98.6399654 61.8240197,92.880023 57.888,88.272 C53.9519803,83.663977 48.8640312,81.36 42.624,81.36 C36.4799693,81.36 31.4400197,83.663977 27.504,88.272 C23.5679803,92.880023 21.6,98.6399654 21.6,105.552 C21.6,112.464035 23.5439806,118.199977 27.432,122.76 C31.3200194,127.320023 36.3839688,129.6 42.624,129.6 C48.8640312,129.6 53.9519803,127.320023 57.888,122.76 Z M176.96,70.632 C182.336027,74.040017 186.583984,78.7679698 189.704,84.816 C192.824016,90.8640302 194.384,97.7279616 194.384,105.408 C194.384,113.088038 192.848015,119.97597 189.776,126.072 C186.703985,132.16803 182.504027,136.919983 177.176,140.328 C171.847973,143.736017 165.968032,145.44 159.536,145.44 C154.927977,145.44 150.58402,144.504009 146.504,142.632 C142.42398,140.759991 139.040013,138.480013 136.352,135.792 L136.352,164.016 C136.352,166.512012 135.536008,168.599992 133.904,170.28 C132.271992,171.960008 130.208012,172.8 127.712,172.8 C125.215988,172.8 123.152008,171.984008 121.52,170.352 C119.887992,168.719992 119.072,166.608013 119.072,164.016 L119.072,75.744 C119.072,73.2479875 119.887992,71.1600084 121.52,69.48 C123.152008,67.7999916 125.215988,66.96 127.712,66.96 C130.208012,66.96 132.271992,67.7999916 133.904,69.48 C135.536008,71.1600084 136.352,73.2479875 136.352,75.744 L136.352,76.32 C138.656012,73.4399856 141.871979,70.9200108 146,68.76 C150.128021,66.5999892 154.447977,65.52 158.96,65.52 C165.584033,65.52 171.583973,67.223983 176.96,70.632 Z M171.92,122.688 C175.85602,118.079977 177.824,112.320035 177.824,105.408 C177.824,98.4959654 175.880019,92.7600228 171.992,88.2 C168.103981,83.6399772 163.040031,81.36 156.8,81.36 C150.559969,81.36 145.47202,83.6399772 141.536,88.2 C137.59998,92.7600228 135.632,98.4959654 135.632,105.408 C135.632,112.320035 137.59998,118.079977 141.536,122.688 C145.47202,127.296023 150.559969,129.6 156.8,129.6 C162.944031,129.6 167.98398,127.296023 171.92,122.688 Z M269.608,129.672 C270.712006,130.968006 271.264,132.671989 271.264,134.784 C271.264,137.376013 269.848014,139.559991 267.016,141.336 C264.183986,143.112009 260.992018,144 257.44,144 C251.48797,144 246.47202,142.728013 242.392,140.184 C238.31198,137.639987 236.272,132.240041 236.272,123.984 L236.272,84.24 L229.648,84.24 C227.343988,84.24 225.424008,83.4720077 223.888,81.936 C222.351992,80.3999923 221.584,78.4800115 221.584,76.176 C221.584,73.967989 222.351992,72.1200074 223.888,70.632 C225.424008,69.1439926 227.343988,68.4 229.648,68.4 L236.272,68.4 L236.272,59.184 C236.272,56.6879875 237.111992,54.6000084 238.792,52.92 C240.472008,51.2399916 242.559988,50.4 245.056,50.4 C247.456012,50.4 249.471992,51.2399916 251.104,52.92 C252.736008,54.6000084 253.552,56.6879875 253.552,59.184 L253.552,68.4 L263.776,68.4 C266.080012,68.4 267.999992,69.1679923 269.536,70.704 C271.072008,72.2400077 271.84,74.1599885 271.84,76.464 C271.84,78.672011 271.072008,80.5199926 269.536,82.008 C267.999992,83.4960074 266.080012,84.24 263.776,84.24 L253.552,84.24 L253.552,123.264 C253.552,125.28001 254.079995,126.743995 255.136,127.656 C256.192005,128.568005 257.631991,129.024 259.456,129.024 C260.224004,129.024 261.279993,128.832002 262.624,128.448 C263.776006,127.967998 264.879995,127.728 265.936,127.728 C267.280007,127.728 268.503994,128.375994 269.608,129.672 Z M375.792,126.216 C372.335983,132.31203 367.60803,137.039983 361.608,140.4 C355.60797,143.760017 349.008036,145.44 341.808,145.44 C334.511964,145.44 327.88803,143.760017 321.936,140.4 C315.98397,137.039983 311.280017,132.31203 307.824,126.216 C304.367983,120.11997 302.64,113.232038 302.64,105.552 C302.64,97.8719616 304.367983,90.9840305 307.824,84.888 C311.280017,78.7919695 315.98397,74.040017 321.936,70.632 C327.88803,67.223983 334.511964,65.52 341.808,65.52 C349.008036,65.52 355.60797,67.223983 361.608,70.632 C367.60803,74.040017 372.335983,78.7919695 375.792,84.888 C379.248017,90.9840305 380.976,97.8719616 380.976,105.552 C380.976,113.232038 379.248017,120.11997 375.792,126.216 Z M360.744,92.952 C358.77599,89.2559815 356.136017,86.4000101 352.824,84.384 C349.511983,82.3679899 345.84002,81.36 341.808,81.36 C337.77598,81.36 334.104017,82.3679899 330.792,84.384 C327.479983,86.4000101 324.84001,89.2559815 322.872,92.952 C320.90399,96.6480185 319.92,100.847976 319.92,105.552 C319.92,110.256024 320.90399,114.431982 322.872,118.08 C324.84001,121.728018 327.479983,124.55999 330.792,126.576 C334.104017,128.59201 337.77598,129.6 341.808,129.6 C345.84002,129.6 349.511983,128.59201 352.824,126.576 C356.136017,124.55999 358.77599,121.728018 360.744,118.08 C362.71201,114.431982 363.696,110.256024 363.696,105.552 C363.696,100.847976 362.71201,96.6480185 360.744,92.952 Z M409.616,127.728 C409.616,125.231988 410.863988,123.120009 413.36,121.392 C414.704007,120.527996 416.095993,120.096 417.536,120.096 C419.55201,120.096 421.471991,121.007991 423.296,122.832 C426.176014,125.808015 429.175984,128.015993 432.296,129.456 C435.416016,130.896007 439.183978,131.616 443.6,131.616 C451.088037,131.327999 454.832,128.496027 454.832,123.12 C454.832,120.335986 453.560013,118.224007 451.016,116.784 C448.471987,115.343993 444.512027,113.904007 439.136,112.464 C433.567972,110.927992 429.032018,109.392008 425.528,107.856 C422.023982,106.319992 419.000013,103.992016 416.456,100.872 C413.911987,97.7519844 412.64,93.5520264 412.64,88.272 C412.64,83.663977 413.959987,79.656017 416.6,76.248 C419.240013,72.839983 422.695979,70.2000094 426.968,68.328 C431.240021,66.4559906 435.775976,65.52 440.576,65.52 C445.472024,65.52 450.367976,66.4319909 455.264,68.256 C460.160024,70.0800091 463.999986,72.7679822 466.784,76.32 C468.032006,77.8560077 468.656,79.5839904 468.656,81.504 C468.656,83.712011 467.744009,85.5359928 465.92,86.976 C464.575993,88.0320053 463.040009,88.56 461.312,88.56 C459.199989,88.56 457.472007,87.8880067 456.128,86.544 C454.399991,84.4319894 452.168014,82.7520062 449.432,81.504 C446.695986,80.2559938 443.600017,79.632 440.144,79.632 C432.847964,79.632 429.2,82.2719736 429.2,87.552 C429.2,89.6640106 429.871993,91.3679935 431.216,92.664 C432.560007,93.9600065 434.26399,94.9679964 436.328,95.688 C438.39201,96.4080036 441.295981,97.2959947 445.04,98.352 C450.224026,99.7920072 454.543983,101.279992 458,102.816 C461.456017,104.352008 464.383988,106.703984 466.784,109.872 C469.184012,113.040016 470.384,117.215974 470.384,122.4 C470.384,127.104024 468.992014,131.207982 466.208,134.712 C463.423986,138.216018 459.848022,140.879991 455.48,142.704 C451.111978,144.528009 446.624023,145.44 442.016,145.44 C435.679968,145.44 429.776027,144.384011 424.304,142.272 C418.831973,140.159989 414.368017,136.752024 410.912,132.048 C410.047996,130.895994 409.616,129.456009 409.616,127.728 Z" id="aptos" fill="url(#linearGradient-1)"></path>
    </g>
</svg>