<?xml version="1.0" encoding="UTF-8"?>
<svg width="466px" height="123px" viewBox="0 0 466 123" version="1.1" xmlns="http://www.w3.org/2000/svg" xmlns:xlink="http://www.w3.org/1999/xlink">
    <!-- Generator: Sketch 44.1 (41455) - http://www.bohemiancoding.com/sketch -->
    <title>aptos</title>
    <desc>Created with Sketch.</desc>
    <defs>
        <linearGradient x1="0%" y1="0%" x2="101.999998%" y2="100.999999%" id="linearGradient-1">
            <stop stop-color="#F2994A" offset="0%"></stop>
            <stop stop-color="#F2C94C" offset="100%"></stop>
        </linearGradient>
    </defs>
    <g id="Page-1" stroke="none" stroke-width="1" fill="none" fill-rule="evenodd" opacity="0.8">
        <path d="M72.904,17.968 C74.5360082,19.6000082 75.352,21.711987 75.352,24.304 L75.352,85.216 C75.352,87.7120125 74.5360082,89.7999916 72.904,91.48 C71.2719918,93.1600084 69.2080125,94 66.712,94 C64.2159875,94 62.1760079,93.1840082 60.592,91.552 C59.0079921,89.9199918 58.1680005,87.8560125 58.072,85.36 C55.671988,88.1440139 52.4320204,90.5199902 48.352,92.488 C44.2719796,94.4560098 39.9760226,95.44 35.464,95.44 C28.8399669,95.44 22.8400269,93.736017 17.464,90.328 C12.0879731,86.919983 7.8400156,82.1920302 4.72,76.144 C1.5999844,70.0959698 0.04,63.2320384 0.04,55.552 C0.04,47.8719616 1.57598464,40.9840305 4.648,34.888 C7.72001536,28.7919695 11.9199734,24.040017 17.248,20.632 C22.5760266,17.223983 28.4559678,15.52 34.888,15.52 C39.496023,15.52 43.8159798,16.3599916 47.848,18.04 C51.8800202,19.7200084 55.2879861,21.855987 58.072,24.448 L58.072,24.304 C58.072,21.8079875 58.8879918,19.7200084 60.52,18.04 C62.1520082,16.3599916 64.2159875,15.52 66.712,15.52 C69.2080125,15.52 71.2719918,16.3359918 72.904,17.968 Z M52.888,72.76 C56.8240197,68.1999772 58.792,62.4640346 58.792,55.552 C58.792,48.6399654 56.8240197,42.880023 52.888,38.272 C48.9519803,33.663977 43.8640312,31.36 37.624,31.36 C31.4799693,31.36 26.4400197,33.663977 22.504,38.272 C18.5679803,42.880023 16.6,48.6399654 16.6,55.552 C16.6,62.4640346 18.5439806,68.1999772 22.432,72.76 C26.3200194,77.3200228 31.3839688,79.6 37.624,79.6 C43.8640312,79.6 48.9519803,77.3200228 52.888,72.76 Z M171.96,20.632 C177.336027,24.040017 181.583984,28.7679698 184.704,34.816 C187.824016,40.8640302 189.384,47.7279616 189.384,55.408 C189.384,63.0880384 187.848015,69.9759695 184.776,76.072 C181.703985,82.1680305 177.504027,86.919983 172.176,90.328 C166.847973,93.736017 160.968032,95.44 154.536,95.44 C149.927977,95.44 145.58402,94.5040094 141.504,92.632 C137.42398,90.7599906 134.040013,88.4800134 131.352,85.792 L131.352,114.016 C131.352,116.512012 130.536008,118.599992 128.904,120.28 C127.271992,121.960008 125.208012,122.8 122.712,122.8 C120.215988,122.8 118.152008,121.984008 116.52,120.352 C114.887992,118.719992 114.072,116.608013 114.072,114.016 L114.072,25.744 C114.072,23.2479875 114.887992,21.1600084 116.52,19.48 C118.152008,17.7999916 120.215988,16.96 122.712,16.96 C125.208012,16.96 127.271992,17.7999916 128.904,19.48 C130.536008,21.1600084 131.352,23.2479875 131.352,25.744 L131.352,26.32 C133.656012,23.4399856 136.871979,20.9200108 141,18.76 C145.128021,16.5999892 149.447977,15.52 153.96,15.52 C160.584033,15.52 166.583973,17.223983 171.96,20.632 Z M166.92,72.688 C170.85602,68.079977 172.824,62.3200346 172.824,55.408 C172.824,48.4959654 170.880019,42.7600228 166.992,38.2 C163.103981,33.6399772 158.040031,31.36 151.8,31.36 C145.559969,31.36 140.47202,33.6399772 136.536,38.2 C132.59998,42.7600228 130.632,48.4959654 130.632,55.408 C130.632,62.3200346 132.59998,68.079977 136.536,72.688 C140.47202,77.296023 145.559969,79.6 151.8,79.6 C157.944031,79.6 162.98398,77.296023 166.92,72.688 Z M264.608,79.672 C265.712006,80.9680065 266.264,82.6719894 266.264,84.784 C266.264,87.376013 264.848014,89.5599911 262.016,91.336 C259.183986,93.1120089 255.992018,94 252.44,94 C246.48797,94 241.47202,92.7280127 237.392,90.184 C233.31198,87.6399873 231.272,82.2400413 231.272,73.984 L231.272,34.24 L224.648,34.24 C222.343988,34.24 220.424008,33.4720077 218.888,31.936 C217.351992,30.3999923 216.584,28.4800115 216.584,26.176 C216.584,23.967989 217.351992,22.1200074 218.888,20.632 C220.424008,19.1439926 222.343988,18.4 224.648,18.4 L231.272,18.4 L231.272,9.184 C231.272,6.68798752 232.111992,4.6000084 233.792,2.92 C235.472008,1.2399916 237.559988,0.4 240.056,0.4 C242.456012,0.4 244.471992,1.2399916 246.104,2.92 C247.736008,4.6000084 248.552,6.68798752 248.552,9.184 L248.552,18.4 L258.776,18.4 C261.080012,18.4 262.999992,19.1679923 264.536,20.704 C266.072008,22.2400077 266.84,24.1599885 266.84,26.464 C266.84,28.672011 266.072008,30.5199926 264.536,32.008 C262.999992,33.4960074 261.080012,34.24 258.776,34.24 L248.552,34.24 L248.552,73.264 C248.552,75.2800101 249.079995,76.7439954 250.136,77.656 C251.192005,78.5680046 252.631991,79.024 254.456,79.024 C255.224004,79.024 256.279993,78.8320019 257.624,78.448 C258.776006,77.9679976 259.879995,77.728 260.936,77.728 C262.280007,77.728 263.503994,78.3759935 264.608,79.672 Z M370.792,76.216 C367.335983,82.3120305 362.60803,87.0399832 356.608,90.4 C350.60797,93.7600168 344.008036,95.44 336.808,95.44 C329.511964,95.44 322.88803,93.7600168 316.936,90.4 C310.98397,87.0399832 306.280017,82.3120305 302.824,76.216 C299.367983,70.1199695 297.64,63.2320384 297.64,55.552 C297.64,47.8719616 299.367983,40.9840305 302.824,34.888 C306.280017,28.7919695 310.98397,24.040017 316.936,20.632 C322.88803,17.223983 329.511964,15.52 336.808,15.52 C344.008036,15.52 350.60797,17.223983 356.608,20.632 C362.60803,24.040017 367.335983,28.7919695 370.792,34.888 C374.248017,40.9840305 375.976,47.8719616 375.976,55.552 C375.976,63.2320384 374.248017,70.1199695 370.792,76.216 Z M355.744,42.952 C353.77599,39.2559815 351.136017,36.4000101 347.824,34.384 C344.511983,32.3679899 340.84002,31.36 336.808,31.36 C332.77598,31.36 329.104017,32.3679899 325.792,34.384 C322.479983,36.4000101 319.84001,39.2559815 317.872,42.952 C315.90399,46.6480185 314.92,50.8479765 314.92,55.552 C314.92,60.2560235 315.90399,64.4319818 317.872,68.08 C319.84001,71.7280182 322.479983,74.5599899 325.792,76.576 C329.104017,78.5920101 332.77598,79.6 336.808,79.6 C340.84002,79.6 344.511983,78.5920101 347.824,76.576 C351.136017,74.5599899 353.77599,71.7280182 355.744,68.08 C357.71201,64.4319818 358.696,60.2560235 358.696,55.552 C358.696,50.8479765 357.71201,46.6480185 355.744,42.952 Z M404.616,77.728 C404.616,75.2319875 405.863988,73.1200086 408.36,71.392 C409.704007,70.5279957 411.095993,70.096 412.536,70.096 C414.55201,70.096 416.471991,71.0079909 418.296,72.832 C421.176014,75.8080149 424.175984,78.0159928 427.296,79.456 C430.416016,80.8960072 434.183978,81.616 438.6,81.616 C446.088037,81.3279986 449.832,78.4960269 449.832,73.12 C449.832,70.3359861 448.560013,68.2240072 446.016,66.784 C443.471987,65.3439928 439.512027,63.9040072 434.136,62.464 C428.567972,60.9279923 424.032018,59.3920077 420.528,57.856 C417.023982,56.3199923 414.000013,53.9920156 411.456,50.872 C408.911987,47.7519844 407.64,43.5520264 407.64,38.272 C407.64,33.663977 408.959987,29.656017 411.6,26.248 C414.240013,22.839983 417.695979,20.2000094 421.968,18.328 C426.240021,16.4559906 430.775976,15.52 435.576,15.52 C440.472024,15.52 445.367976,16.4319909 450.264,18.256 C455.160024,20.0800091 458.999986,22.7679822 461.784,26.32 C463.032006,27.8560077 463.656,29.5839904 463.656,31.504 C463.656,33.712011 462.744009,35.5359928 460.92,36.976 C459.575993,38.0320053 458.040009,38.56 456.312,38.56 C454.199989,38.56 452.472007,37.8880067 451.128,36.544 C449.399991,34.4319894 447.168014,32.7520062 444.432,31.504 C441.695986,30.2559938 438.600017,29.632 435.144,29.632 C427.847964,29.632 424.2,32.2719736 424.2,37.552 C424.2,39.6640106 424.871993,41.3679935 426.216,42.664 C427.560007,43.9600065 429.26399,44.9679964 431.328,45.688 C433.39201,46.4080036 436.295981,47.2959947 440.04,48.352 C445.224026,49.7920072 449.543983,51.2799923 453,52.816 C456.456017,54.3520077 459.383988,56.7039842 461.784,59.872 C464.184012,63.0400158 465.384,67.2159741 465.384,72.4 C465.384,77.1040235 463.992014,81.2079825 461.208,84.712 C458.423986,88.2160175 454.848022,90.8799909 450.48,92.704 C446.111978,94.5280091 441.624023,95.44 437.016,95.44 C430.679968,95.44 424.776027,94.3840106 419.304,92.272 C413.831973,90.1599894 409.368017,86.7520235 405.912,82.048 C405.047996,80.8959942 404.616,79.4560086 404.616,77.728 Z" id="aptos" fill="url(#linearGradient-1)"></path>
    </g>
</svg>